<?xml version="1.0" encoding="utf-8"?>
<!-- Generator: Adobe Illustrator 25.2.0, SVG Export Plug-In . SVG Version: 6.00 Build 0)  -->
<svg version="1.1" id="Livello_1" xmlns="http://www.w3.org/2000/svg" xmlns:xlink="http://www.w3.org/1999/xlink" x="0px" y="0px"
	 viewBox="0 0 284 280.7" style="enable-background:new 0 0 284 280.7;" xml:space="preserve">
<style type="text/css">
	.st0{fill:#72B2DF;}
	.st1{fill:#4B4F54;}
	.st2{fill:#8D8F90;}
</style>
<path class="st0" d="M214.9,56.9c43.7,43.7,45.8,113.8,4.8,160c1.7-1.5,3.3-3,4.9-4.7c45.5-45.5,45.5-119.3-0.1-164.9
	S105.1,1.7,59.6,47.2c-1.6,1.6-3.2,3.3-4.7,4.9C101.1,11.1,171.3,13.2,214.9,56.9z"/>
<path class="st1" d="M30.3,124.6c16-59.7,75.7-96.5,136.2-83.9c-2.1-0.7-4.3-1.4-6.5-2C97.8,22.1,33.9,59,17.3,121.2
	s20.3,126.1,82.5,142.7c2.2,0.6,4.4,1.1,6.6,1.6C47.7,246,14.4,184.3,30.3,124.6z"/>
<path class="st2" d="M180.9,250.5c-59.7,15.9-121.5-17.4-140.9-76.1c0.5,2.2,1,4.4,1.6,6.6c16.6,62.2,80.5,99.2,142.7,82.5
	s99.2-80.5,82.5-142.7c-0.6-2.2-1.3-4.4-2-6.5C277.4,174.8,240.5,234.6,180.9,250.5z"/>
</svg>
