<?xml version="1.0" encoding="utf-8"?>
<!-- Generator: Adobe Illustrator 25.2.0, SVG Export Plug-In . SVG Version: 6.00 Build 0)  -->
<svg version="1.1" id="Livello_1" xmlns="http://www.w3.org/2000/svg" xmlns:xlink="http://www.w3.org/1999/xlink" x="0px" y="0px"
	 viewBox="0 0 284 280.7" style="enable-background:new 0 0 284 280.7;" xml:space="preserve">
<style type="text/css">
	.st0{fill:#72B2DF;}
	.st1{fill:#8D8F90;}
	.st2{fill:#FFFFFF;}
</style>
<path class="st0" d="M217,54.5c45,44.9,47.1,117.1,4.9,164.5c1.7-1.5,3.4-3.1,5.1-4.8c46.8-46.8,46.7-122.7-0.1-169.6
	S104-2.2,57.2,44.6c-1.7,1.7-3.2,3.4-4.8,5.1C99.9,7.4,172.1,9.6,217,54.5z"/>
<path class="st1" d="M27.1,124.1c16.4-61.4,77.9-99.2,140-86.3c-2.2-0.7-4.4-1.4-6.7-2c-64-17.1-129.7,20.9-146.8,84.9
	s20.9,129.7,84.9,146.8c2.3,0.6,4.5,1.2,6.8,1.6C45.1,249,10.8,185.5,27.1,124.1z"/>
<path class="st2" d="M182,253.7C120.6,270.1,57.1,235.8,37,175.4c0.5,2.3,1,4.5,1.6,6.8c17.1,64,82.8,102,146.8,84.9
	c64-17.1,102-82.8,84.9-146.8c-0.6-2.3-1.3-4.5-2-6.7C281.2,175.8,243.4,237.3,182,253.7z"/>
</svg>
